<svg width="33" height="32" viewBox="0 0 33 32" fill="none" xmlns="http://www.w3.org/2000/svg">
<path d="M16.9958 18.6666C15.523 18.6666 14.3291 17.4727 14.3291 15.9999C14.3291 14.5272 15.523 13.3333 16.9958 13.3333" stroke="#510C76" stroke-width="2" stroke-linecap="round" stroke-linejoin="round"/>
<path fill-rule="evenodd" clip-rule="evenodd" d="M25.2719 13.3333H29.6614C29.9037 13.3333 30.127 13.4648 30.2445 13.6767C30.3619 13.8887 30.3551 14.1477 30.2267 14.3533L29.1975 15.9999L30.2267 17.6466C30.3551 17.8521 30.3619 18.1111 30.2445 18.3231C30.127 18.5351 29.9037 18.6666 29.6614 18.6666H25.2719C25.0951 18.6666 24.9255 18.5963 24.8005 18.4713L22.3291 15.9999L24.8005 13.5285C24.9255 13.4035 25.0951 13.3333 25.2719 13.3333V13.3333Z" stroke="#510C76" stroke-width="2" stroke-linecap="round" stroke-linejoin="round"/>
<path d="M19.6631 15.9999H22.3298" stroke="#510C76" stroke-width="2" stroke-linecap="round" stroke-linejoin="round"/>
<path d="M22.0189 10.6668C19.1135 7.92483 14.5479 8.01294 11.7504 10.8649C8.95298 13.7169 8.95298 18.2833 11.7504 21.1353C14.5479 23.9872 19.1135 24.0753 22.0189 21.3334" stroke="#510C76" stroke-width="2" stroke-linecap="round" stroke-linejoin="round"/>
<path d="M26.9729 9.33329C24.0364 4.93832 18.5699 2.98232 13.5118 4.51664C8.45367 6.05096 4.99512 10.7142 4.99512 16C4.99512 21.2857 8.45367 25.9489 13.5118 27.4833C18.5699 29.0176 24.0364 27.0616 26.9729 22.6666" stroke="#510C76" stroke-width="2" stroke-linecap="round" stroke-linejoin="round"/>
</svg>
