<svg width="32" height="32" viewBox="0 0 32 32" fill="none" xmlns="http://www.w3.org/2000/svg">
<path fill-rule="evenodd" clip-rule="evenodd" d="M25.3337 22.6666H24.0003C23.2643 22.6666 22.667 22.0693 22.667 21.3333V14.6666C22.667 13.9306 23.2643 13.3333 24.0003 13.3333H25.3337C26.807 13.3333 28.0003 14.5266 28.0003 15.9999V19.9999C28.0003 21.4733 26.807 22.6666 25.3337 22.6666Z" stroke="#510C76" stroke-width="2" stroke-linecap="round" stroke-linejoin="round"/>
<path fill-rule="evenodd" clip-rule="evenodd" d="M8 22.6666H6.66667C5.19333 22.6666 4 21.4733 4 19.9999V15.9999C4 14.5266 5.19333 13.3333 6.66667 13.3333H8C8.736 13.3333 9.33333 13.9306 9.33333 14.6666V21.3333C9.33333 22.0693 8.736 22.6666 8 22.6666Z" stroke="#510C76" stroke-width="2" stroke-linecap="round" stroke-linejoin="round"/>
<path d="M24.6663 13.3333V12.6667C24.6663 7.88 20.7863 4 15.9997 4V4C11.213 4 7.33301 7.88 7.33301 12.6667V13.3333" stroke="#510C76" stroke-width="2" stroke-linecap="round" stroke-linejoin="round"/>
<path fill-rule="evenodd" clip-rule="evenodd" d="M16.8333 28.3333H15.1667C14.2467 28.3333 13.5 27.5867 13.5 26.6667V26.6667C13.5 25.7467 14.2467 25 15.1667 25H16.8333C17.7533 25 18.5 25.7467 18.5 26.6667V26.6667C18.5 27.5867 17.7533 28.3333 16.8333 28.3333Z" stroke="#510C76" stroke-width="2" stroke-linecap="round" stroke-linejoin="round"/>
<path d="M18.5 26.6667H21.3333C22.8067 26.6667 24 25.4734 24 24.0001V22.6667" stroke="#510C76" stroke-width="2" stroke-linecap="round" stroke-linejoin="round"/>
</svg>
