<svg width="32" height="32" viewBox="0 0 32 32" fill="none" xmlns="http://www.w3.org/2000/svg">
<path d="M16.0016 12.5V11.3333" stroke="#510C76" stroke-width="2" stroke-linecap="round" stroke-linejoin="round"/>
<path d="M16.0016 19.5001V20.6667" stroke="#510C76" stroke-width="2" stroke-linecap="round" stroke-linejoin="round"/>
<path d="M13.9773 18.6668C14.28 19.1614 14.796 19.5041 15.4186 19.5041H16.0026H16.6973C17.6026 19.5041 18.3346 18.7708 18.3346 17.8668C18.3346 17.1148 17.8226 16.4601 17.0946 16.2761L14.908 15.7268C14.1813 15.5441 13.668 14.8881 13.668 14.1361C13.668 13.2308 14.4013 12.4988 15.3053 12.4988H16H16.584C17.2066 12.4988 17.7213 12.8388 18.024 13.3321" stroke="#510C76" stroke-width="2" stroke-linecap="round" stroke-linejoin="round"/>
<path fill-rule="evenodd" clip-rule="evenodd" d="M26.4053 24.284V24.284C23.0653 23.616 19.62 23.6986 16.316 24.524L16 24.6039C12.488 25.4813 8.82533 25.5693 5.276 24.8586L5.072 24.8173C4.448 24.6933 4 24.1453 4 23.5106V9.05862C4 8.21728 4.76933 7.58662 5.59467 7.75062V7.75062C8.93467 8.41862 12.38 8.33595 15.684 7.51062L16.3147 7.35328C19.6187 6.52795 23.0653 6.44528 26.404 7.11328L26.9267 7.21728C27.552 7.34262 28 7.88928 28 8.52528V22.9773C28 23.8186 27.2307 24.4493 26.4053 24.284V24.284Z" stroke="#510C76" stroke-width="2" stroke-linecap="round" stroke-linejoin="round"/>
</svg>
